<svg width="27" height="28" viewBox="0 0 27 30" fill="none" xmlns="http://www.w3.org/2000/svg">
<path d="M13.4251 6.5625C12.7102 6.5625 12.0114 6.37006 11.417 6.00951C10.8226 5.64896 10.3593 5.1365 10.0857 4.53693C9.81211 3.93736 9.74053 3.27761 9.88 2.64111C10.0195 2.00461 10.3637 1.41995 10.8692 0.961057C11.3748 0.502166 12.0188 0.189657 12.72 0.0630498C13.4211 -0.063558 14.1479 0.00142174 14.8084 0.249772C15.4689 0.498122 16.0334 0.918688 16.4306 1.45829C16.8278 1.99789 17.0397 2.63228 17.0397 3.28125C17.0387 4.15121 16.6576 4.98526 15.9799 5.60042C15.3023 6.21557 14.3835 6.56157 13.4251 6.5625Z" fill="white"/>
<path d="M24.7852 6.60929L24.7561 6.61632L24.729 6.62394C24.6645 6.64035 24.5999 6.65793 24.5354 6.67609C23.3342 6.99601 17.5043 8.48781 13.3972 8.48781C9.58062 8.48781 4.27813 7.19875 2.58186 6.76105C2.41304 6.70179 2.24063 6.65132 2.06548 6.60988C0.839103 6.31691 0 7.44777 0 8.48136C0 9.50499 1.01338 9.99249 2.03644 10.3423V10.3587L8.18254 12.1013C8.81058 12.3198 8.9784 12.5431 9.06038 12.7364C9.32695 13.3569 9.11395 14.5857 9.03843 15.0146L8.66406 17.6513L6.58631 27.9749C6.57986 28.003 6.57405 28.0318 6.56888 28.061L6.55404 28.1355C6.40429 29.0818 7.16981 29.9999 8.61952 29.9999C9.88463 29.9999 10.443 29.2071 10.685 28.1284C10.9271 27.0497 12.4923 18.8958 13.396 18.8958C14.2996 18.8958 16.1611 28.1284 16.1611 28.1284C16.4032 29.2071 16.9615 29.9999 18.2266 29.9999C19.6802 29.9999 20.4457 29.0777 20.2921 28.1284C20.2785 28.0476 20.2624 27.9679 20.243 27.8905L18.1369 17.6525L17.7632 15.0157C17.4927 13.48 17.7102 12.9726 17.7838 12.8536C17.7858 12.8508 17.7875 12.8479 17.789 12.8448C17.8587 12.7277 18.1763 12.4652 18.9173 12.2126L24.68 10.3839C24.7153 10.3753 24.7502 10.3652 24.7845 10.3534C25.8173 10.0019 26.85 9.51554 26.85 8.48253C26.85 7.44953 26.0115 6.31691 24.7852 6.60929Z" fill="white"/>
</svg>
