<svg width="30" height="28" viewBox="0 0 28 24" fill="none" xmlns="http://www.w3.org/2000/svg">
<g clip-path="url(#clip0_183_394)">
<path d="M22.1079 12.98C22.1527 12.66 22.1863 12.34 22.1863 12C22.1863 11.66 22.1527 11.34 22.1079 11.02L24.4687 9.37C24.6813 9.22 24.7372 8.95 24.603 8.73L22.3653 5.27C22.2646 5.11 22.0744 5.02 21.873 5.02C21.8059 5.02 21.7387 5.03 21.6828 5.05L18.8968 6.05C18.315 5.65 17.6885 5.32 17.006 5.07L16.5808 2.42C16.5472 2.18 16.3123 2 16.0326 2H11.5572C11.2774 2 11.0425 2.18 11.0089 2.42L10.5838 5.07C9.90126 5.32 9.2747 5.66 8.6929 6.05L5.90696 5.05C5.83983 5.03 5.77269 5.02 5.70556 5.02C5.51536 5.02 5.32515 5.11 5.22446 5.27L2.98675 8.73C2.8413 8.95 2.90843 9.22 3.12101 9.37L5.48179 11.02C5.43704 11.34 5.40347 11.67 5.40347 12C5.40347 12.33 5.43704 12.66 5.48179 12.98L3.12101 14.63C2.90843 14.78 2.85249 15.05 2.98675 15.27L5.22446 18.73C5.32515 18.89 5.51536 18.98 5.71675 18.98C5.78388 18.98 5.85101 18.97 5.90696 18.95L8.6929 17.95C9.2747 18.35 9.90126 18.68 10.5838 18.93L11.0089 21.58C11.0425 21.82 11.2774 22 11.5572 22H16.0326C16.3123 22 16.5472 21.82 16.5808 21.58L17.006 18.93C17.6885 18.68 18.315 18.34 18.8968 17.95L21.6828 18.95C21.7499 18.97 21.817 18.98 21.8842 18.98C22.0744 18.98 22.2646 18.89 22.3653 18.73L24.603 15.27C24.7372 15.05 24.6813 14.78 24.4687 14.63L22.1079 12.98ZM19.8926 11.27C19.9374 11.58 19.9486 11.79 19.9486 12C19.9486 12.21 19.9262 12.43 19.8926 12.73L19.736 13.86L20.7318 14.56L21.9401 15.4L21.1569 16.61L19.736 16.1L18.5724 15.68L17.5654 16.36C17.0843 16.68 16.6256 16.92 16.1668 17.09L14.9809 17.52L14.8018 18.65L14.5781 20H13.0117L12.7991 18.65L12.6201 17.52L11.4341 17.09C10.953 16.91 10.5054 16.68 10.0579 16.38L9.03974 15.68L7.85376 16.11L6.43282 16.62L5.64962 15.41L6.85798 14.57L7.85376 13.87L7.69712 12.74C7.66356 12.43 7.64118 12.2 7.64118 12C7.64118 11.8 7.66356 11.57 7.69712 11.27L7.85376 10.14L6.85798 9.44L5.64962 8.6L6.43282 7.39L7.85376 7.9L9.01737 8.32L10.0243 7.64C10.5054 7.32 10.9642 7.08 11.4229 6.91L12.6089 6.48L12.7879 5.35L13.0117 4H14.5669L14.7795 5.35L14.9585 6.48L16.1445 6.91C16.6256 7.09 17.0731 7.32 17.5206 7.62L18.5388 8.32L19.7248 7.89L21.1457 7.38L21.9289 8.59L20.7318 9.44L19.736 10.14L19.8926 11.27ZM13.7949 8C11.3222 8 9.31946 9.79 9.31946 12C9.31946 14.21 11.3222 16 13.7949 16C16.2675 16 18.2703 14.21 18.2703 12C18.2703 9.79 16.2675 8 13.7949 8ZM13.7949 14C12.5641 14 11.5572 13.1 11.5572 12C11.5572 10.9 12.5641 10 13.7949 10C15.0256 10 16.0326 10.9 16.0326 12C16.0326 13.1 15.0256 14 13.7949 14Z" fill="white"/>
</g>
<defs>
<clipPath id="clip0_183_394">
<rect width="26.8525" height="24" fill="white" transform="translate(0.368652)"/>
</clipPath>
</defs>
</svg>
