<svg width="26" height="24" viewBox="0 0 26 28" fill="none" xmlns="http://www.w3.org/2000/svg">
<path d="M3.29358 0.933333V1.86667H0.8125C0.363772 1.86667 0 2.28454 0 2.8V27.0667C0 27.5821 0.363772 28 0.8125 28H25.1875C25.6362 28 26 27.5821 26 27.0667V2.8C26 2.28454 25.6362 1.86667 25.1875 1.86667H22.7064V0.933333C22.7064 0.417872 22.3426 0 21.8939 0H16.9733C15.4417 0 14.0069 0.755851 13 2.03504C11.9931 0.755851 10.5583 0 9.02679 0H4.10608C3.65736 0 3.29358 0.417872 3.29358 0.933333ZM21.0814 2.7331C21.08 2.7552 21.0793 2.77751 21.0793 2.8C21.0793 2.82249 21.08 2.8448 21.0814 2.8669V22.2902H17.2578C15.9829 22.2902 14.7763 22.7961 13.8125 23.6777V3.88059C14.5052 2.62578 15.6955 1.86667 16.9733 1.86667H21.0814V2.7331ZM22.7064 3.73333H24.375V26.1333H14.0189C14.7526 24.9028 15.9596 24.1569 17.2578 24.1569H21.8939C22.3426 24.1569 22.7064 23.739 22.7064 23.2236V3.73333ZM8.74213 24.1569C10.0404 24.1569 11.2474 24.9028 11.9811 26.1333H1.625V3.73333H3.29358V23.2236C3.29358 23.739 3.65736 24.1569 4.10608 24.1569H8.74213ZM4.91858 22.2902V2.86688C4.91995 2.8448 4.92065 2.82249 4.92065 2.8C4.92065 2.77751 4.91995 2.7552 4.91858 2.73312V1.86667H9.02679C10.3044 1.86667 11.4948 2.62578 12.1875 3.88059V23.6777C11.2237 22.7961 10.0172 22.2902 8.74213 22.2902H4.91858Z" fill="white"/>
</svg>
