<svg width="32" height="28" viewBox="0 0 28 24" fill="none" xmlns="http://www.w3.org/2000/svg">
<g clip-path="url(#clip0_183_372)">
<path d="M19.0195 13.13C20.5524 14.06 21.6265 15.32 21.6265 17V20H26.1019V17C26.1019 14.82 22.1076 13.53 19.0195 13.13Z" fill="white"/>
<path d="M17.1512 12C19.6238 12 21.6266 10.21 21.6266 8C21.6266 5.79 19.6238 4 17.1512 4C16.6253 4 16.133 4.1 15.6631 4.24C16.5917 5.27 17.1512 6.58 17.1512 8C17.1512 9.42 16.5917 10.73 15.6631 11.76C16.133 11.9 16.6253 12 17.1512 12Z" fill="white"/>
<path d="M10.4383 12C12.911 12 14.9137 10.21 14.9137 8C14.9137 5.79 12.911 4 10.4383 4C7.96564 4 5.96289 5.79 5.96289 8C5.96289 10.21 7.96564 12 10.4383 12ZM10.4383 6C11.669 6 12.676 6.9 12.676 8C12.676 9.1 11.669 10 10.4383 10C9.20756 10 8.2006 9.1 8.2006 8C8.2006 6.9 9.20756 6 10.4383 6Z" fill="white"/>
<path d="M10.4381 13C7.45079 13 1.4873 14.34 1.4873 17V20H19.3889V17C19.3889 14.34 13.4255 13 10.4381 13ZM17.1512 18H3.72501V17.01C3.94878 16.29 7.41722 15 10.4381 15C13.459 15 16.9275 16.29 17.1512 17V18Z" fill="white"/>
</g>
<defs>
<clipPath id="clip0_183_372">
<rect width="26.8525" height="24" fill="white" transform="translate(0.368652)"/>
</clipPath>
</defs>
</svg>
