<svg width="20" height="20" viewBox="0 0 20 20" fill="none" xmlns="http://www.w3.org/2000/svg">
<path d="M0.417906 0.423233C0.685572 0.163335 1.04856 0.0173317 1.42704 0.0173317C1.80551 0.0173317 2.1685 0.163335 2.43616 0.423233L9.99108 7.76113L17.546 0.423233C17.6777 0.290824 17.8352 0.185209 18.0093 0.112553C18.1834 0.0398959 18.3707 0.00165193 18.5603 5.23441e-05C18.7498 -0.00154724 18.9377 0.0335292 19.1131 0.103236C19.2886 0.172942 19.4479 0.275882 19.5819 0.406049C19.716 0.536216 19.8219 0.691004 19.8937 0.86138C19.9655 1.03176 20.0016 1.21431 19.9999 1.39839C19.9983 1.58246 19.9589 1.76438 19.8841 1.93352C19.8093 2.10266 19.7006 2.25563 19.5642 2.38352L12.0093 9.72141L19.5642 17.0593C19.8243 17.3208 19.9681 17.671 19.9649 18.0345C19.9616 18.398 19.8115 18.7457 19.5469 19.0027C19.2822 19.2597 18.9242 19.4055 18.55 19.4087C18.1757 19.4119 17.8152 19.2721 17.546 19.0196L9.99108 11.6817L2.43616 19.0196C2.16697 19.2721 1.80642 19.4119 1.43217 19.4087C1.05793 19.4055 0.699933 19.2597 0.435293 19.0027C0.170652 18.7457 0.0205402 18.398 0.0172881 18.0345C0.0140361 17.671 0.157905 17.3208 0.417906 17.0593L7.97282 9.72141L0.417906 2.38352C0.150321 2.12354 0 1.77098 0 1.40338C0 1.03577 0.150321 0.68321 0.417906 0.423233Z" fill="#F3F1F5"/>
</svg>
