<svg width="22" height="20" viewBox="0 0 22 20" fill="none" xmlns="http://www.w3.org/2000/svg">
<g clip-path="url(#clip0_210_79)">
<path d="M21.9885 10.1871C21.9885 9.36767 21.9137 8.76973 21.7517 8.14966H11.2192V11.848H17.4015C17.2769 12.7671 16.6039 14.1512 15.1081 15.0813L15.0871 15.2051L18.4173 17.4969L18.648 17.5174C20.7669 15.7789 21.9885 13.221 21.9885 10.1871Z" fill="#4285F4"/>
<path d="M11.2192 19.9313C14.248 19.9313 16.7907 19.0454 18.648 17.5174L15.1081 15.0813C14.1608 15.6682 12.8894 16.0779 11.2192 16.0779C8.25267 16.0779 5.73487 14.3395 4.83735 11.9366L4.70579 11.9466L1.24304 14.3273L1.19775 14.4391C3.04247 17.6945 6.83166 19.9313 11.2192 19.9313Z" fill="#34A853"/>
<path d="M4.83737 11.9366C4.60055 11.3165 4.4635 10.6521 4.4635 9.96559C4.4635 9.27902 4.60055 8.61467 4.82491 7.9946L4.81864 7.86253L1.31249 5.4436L1.19778 5.49208C0.43748 6.84299 0.0012207 8.36002 0.0012207 9.96559C0.0012207 11.5712 0.43748 13.0881 1.19778 14.439L4.83737 11.9366Z" fill="#FBBC05"/>
<path d="M11.2192 3.85336C13.3256 3.85336 14.7466 4.66168 15.5568 5.33718L18.7227 2.59107C16.7783 0.985496 14.248 0 11.2192 0C6.83166 0 3.04247 2.23672 1.19775 5.49214L4.82489 7.99466C5.73487 5.59183 8.25267 3.85336 11.2192 3.85336Z" fill="#EB4335"/>
</g>
<defs>
<clipPath id="clip0_210_79">
<rect width="22" height="20" fill="white"/>
</clipPath>
</defs>
</svg>
